<?xml version="1.0" standalone="no"?>
<!DOCTYPE svg PUBLIC "-//W3C//DTD SVG 20010904//EN"
 "http://www.w3.org/TR/2001/REC-SVG-20010904/DTD/svg10.dtd">
<svg version="1.0" xmlns="http://www.w3.org/2000/svg"
 width="773.000000pt" height="406.000000pt" viewBox="0 0 773.000000 406.000000"
 preserveAspectRatio="xMidYMid meet">

<g transform="translate(0.000000,406.000000) scale(0.100000,-0.100000)"
fill="#000000" stroke="none">
<path d="M490 4049 c-252 -26 -450 -252 -450 -514 1 -206 89 -370 260 -480 36
-23 132 -79 214 -125 164 -92 209 -130 227 -191 36 -118 -81 -259 -204 -245
-63 7 -113 38 -148 95 -26 41 -29 53 -29 132 0 48 -3 94 -6 103 -5 14 -29 16
-160 16 l-154 0 0 -113 c0 -178 45 -292 158 -404 253 -251 663 -175 818 152
65 135 67 300 6 428 -59 123 -130 182 -391 323 -231 125 -271 170 -271 307 0
69 12 103 53 145 45 47 78 62 137 62 79 0 137 -35 173 -105 17 -33 21 -64 25
-182 l5 -143 153 0 154 0 0 159 c0 184 -15 249 -78 347 -110 168 -289 253
-492 233z"/>
<path d="M3844 4045 c-189 -41 -355 -207 -395 -395 -8 -36 -12 -217 -13 -544
-1 -482 -1 -492 21 -562 44 -138 146 -256 277 -319 119 -57 237 -66 364 -27
l53 16 94 -94 95 -95 112 113 113 112 -86 87 -86 88 28 67 c48 110 52 177 44
677 -7 488 -10 517 -63 615 -36 69 -154 185 -222 219 -62 30 -174 57 -235 56
-22 0 -68 -7 -101 -14z m192 -325 c23 -12 54 -38 69 -60 40 -57 46 -153 43
-619 -3 -386 -4 -397 -25 -437 -60 -112 -184 -145 -282 -74 -22 17 -51 49 -63
72 -23 43 -23 47 -26 482 -3 470 0 514 44 578 51 73 156 98 240 58z"/>
<path d="M1084 4015 c3 -9 82 -249 176 -533 l170 -518 0 -382 0 -382 160 0
160 0 0 384 0 384 175 518 c96 285 175 524 175 531 0 10 -33 13 -155 13 l-155
0 -7 -27 c-3 -16 -48 -176 -99 -358 l-92 -330 -16 55 c-8 30 -52 187 -96 349
-45 162 -83 298 -86 303 -3 4 -75 8 -161 8 -135 0 -154 -2 -149 -15z"/>
<path d="M2248 4018 c-3 -7 -3 -419 0 -915 l5 -903 147 0 c109 0 149 3 152 13
2 6 0 185 -4 397 -5 212 -7 420 -6 462 l3 77 221 -472 222 -472 118 -3 c64 -1
121 1 126 6 6 6 6 385 2 916 l-7 907 -146 -3 -146 -3 3 -455 c2 -250 5 -480 8
-510 3 -42 2 -51 -7 -40 -6 8 -106 238 -223 510 l-212 495 -126 3 c-95 2 -127
-1 -130 -10z"/>
<path d="M2254 1817 c-2 -7 -3 -78 -2 -157 l3 -145 178 -3 177 -2 0 -755 0
-756 158 3 157 3 -4 752 -4 753 179 2 179 3 0 155 0 155 -508 3 c-410 2 -509
0 -513 -11z"/>
<path d="M3294 1815 c3 -9 82 -249 176 -533 l170 -518 0 -382 0 -382 160 0
160 0 0 384 0 384 175 518 c96 285 175 524 175 531 0 10 -33 13 -155 13 l-155
0 -7 -27 c-3 -16 -48 -176 -99 -358 l-92 -330 -16 55 c-8 30 -52 187 -96 349
-45 162 -83 298 -86 303 -3 4 -75 8 -161 8 -135 0 -154 -2 -149 -15z"/>
<path d="M4458 1000 c-1 -456 -3 -867 -3 -912 l0 -83 160 0 160 0 3 333 2 332
83 0 c229 0 349 40 462 155 118 121 168 254 169 455 1 190 -44 309 -155 415
-122 116 -203 135 -591 135 l-288 0 -2 -830z m590 504 c40 -8 100 -71 118
-126 22 -66 16 -185 -13 -249 -26 -58 -85 -116 -132 -129 -20 -5 -82 -10 -138
-10 l-103 0 0 260 0 259 93 3 c90 3 130 1 175 -8z"/>
<path d="M5678 1090 c-2 -407 -3 -818 -3 -912 l0 -173 435 0 435 0 0 155 0
155 -275 5 -275 5 -3 228 -2 227 274 0 c210 0 275 3 277 12 2 7 3 79 1 161
l-3 147 -275 0 -274 0 0 205 0 205 275 0 275 0 0 160 0 160 -430 0 -430 0 -2
-740z"/>
<path d="M6670 165 l0 -155 25 0 c24 0 25 2 25 65 0 62 1 65 25 65 31 0 45
-26 45 -84 0 -43 2 -46 26 -46 26 0 26 0 20 67 -7 93 -7 93 0 136 12 72 -27
107 -116 107 l-50 0 0 -155z m114 83 c15 -25 -3 -52 -38 -56 -24 -3 -26 -1
-26 38 0 39 2 41 26 38 15 -2 32 -11 38 -20z"/>
<path d="M6889 291 c-28 -29 -29 -33 -29 -126 0 -93 1 -97 29 -126 18 -17 40
-29 56 -29 16 0 38 12 56 29 28 28 29 33 29 120 0 100 -10 133 -47 150 -39 18
-63 13 -94 -18z m80 -35 c8 -9 11 -44 9 -96 -2 -67 -6 -85 -21 -94 -30 -18
-47 17 -47 97 0 94 25 134 59 93z"/>
<path d="M7040 318 c0 -2 14 -46 30 -98 19 -59 30 -115 30 -152 0 -55 1 -58
25 -58 24 0 25 2 25 68 0 47 8 92 25 142 31 90 31 100 2 100 -20 0 -25 -9 -39
-57 -16 -60 -19 -59 -38 15 -9 35 -15 42 -35 42 -14 0 -25 -1 -25 -2z"/>
<path d="M7245 308 c-2 -7 -15 -77 -28 -155 l-24 -143 24 0 c13 0 26 7 29 15
8 20 64 20 64 0 0 -9 9 -15 25 -15 30 0 30 -6 5 144 -29 175 -26 166 -61 166
-16 0 -31 -6 -34 -12z m48 -166 c4 -32 2 -45 -9 -49 -23 -8 -25 0 -18 62 8 62
18 57 27 -13z"/>
<path d="M7390 165 l0 -155 70 0 c68 0 70 1 70 25 0 23 -4 25 -45 25 l-45 0 0
130 0 130 -25 0 -25 0 0 -155z"/>
<path d="M7570 165 l0 -155 70 0 c68 0 70 1 70 25 0 23 -4 25 -45 25 l-45 0 0
40 0 40 45 0 c41 0 45 2 45 25 0 23 -4 25 -45 25 l-45 0 0 40 0 40 45 0 c41 0
45 2 45 25 0 24 -2 25 -70 25 l-70 0 0 -155z"/>
</g>
</svg>
